<?xml version="1.0" encoding="UTF-8"?>
<svg xmlns="http://www.w3.org/2000/svg" xmlns:xlink="http://www.w3.org/1999/xlink" version="1.1" id="Capa_1" x="0px" y="0px" viewBox="0 0 480 480" style="enable-background:new 0 0 480 480;" xml:space="preserve" width="512px" height="512px" class=""><g><path style="fill:#FF3860;" d="M152,8h176c17.673,0,32,14.327,32,32v400c0,17.673-14.327,32-32,32H152c-17.673,0-32-14.327-32-32V40  C120,22.327,134.327,8,152,8z" data-original="#7D8D9C" class="active-path" data-old_color="#ffffff"/><path style="fill:#ffffff;" d="M120,80h240v328H120V80z" data-original="#87CEE9" class="" data-old_color="#ff3860"/><g>
	<path style="fill:#EEEEEE" d="M184,40h112v16H184V40z" data-original="#AABECE" class="" data-old_color="#eeeeee"/>
	<path style="fill:#EEEEEE" d="M224,432h32v16h-32V432z" data-original="#AABECE" class="" data-old_color="#eeeeee"/>
</g><g>
	<path style="fill:#EEEEEE" d="M144,104h32v16h-32V104z" data-original="#E9686A" class="" data-old_color="#eeeeee"/>
	<path style="fill:#EEEEEE" d="M192,104h32v16h-32V104z" data-original="#E9686A" class="" data-old_color="#eeeeee"/>
</g><g>
	<path style="fill:#eeeeee;" d="M200,240h80v80h-80V240z" data-original="#238892" class="" data-old_color="#eeeeee"/>
	<path style="fill:#EEEEEE" d="M168,288c-4.418,0-8-3.582-8-8v-40c0-4.418,3.582-8,8-8s8,3.582,8,8v40   C176,284.418,172.418,288,168,288z" data-original="#238892" class="" data-old_color="#eeeeee"/>
	<path style="fill:#EEEEEE" d="M312,288c-4.418,0-8-3.582-8-8v-40c0-4.418,3.582-8,8-8s8,3.582,8,8v40   C320,284.418,316.418,288,312,288z" data-original="#238892" class="" data-old_color="#eeeeee"/>
	<path style="fill:#EEEEEE" d="M216,368c-4.418,0-8-3.582-8-8v-40c0-4.418,3.582-8,8-8s8,3.582,8,8v40   C224,364.418,220.418,368,216,368z" data-original="#238892" class="" data-old_color="#eeeeee"/>
	<path style="fill:#EEEEEE" d="M264,368c-4.418,0-8-3.582-8-8v-40c0-4.418,3.582-8,8-8s8,3.582,8,8v40   C272,364.418,268.418,368,264,368z" data-original="#238892" class="" data-old_color="#eeeeee"/>
	<path style="fill:#EEEEEE" d="M224,200c-4.418,0-8-3.582-8-8v-24c0-4.418,3.582-8,8-8s8,3.582,8,8v24   C232,196.418,228.418,200,224,200z" data-original="#238892" class="" data-old_color="#eeeeee"/>
	<path style="fill:#EEEEEE" d="M256,200c-4.418,0-8-3.582-8-8v-24c0-4.418,3.582-8,8-8s8,3.582,8,8v24   C264,196.418,260.418,200,256,200z" data-original="#238892" class="" data-old_color="#eeeeee"/>
</g><path style="fill:#eeeeee;" d="M216,192h48c8.837,0,16,7.163,16,16v32l0,0h-80l0,0v-32C200,199.163,207.163,192,216,192z" data-original="#394D5C" class="" data-old_color="#eeeeee"/><path d="M368,40c-0.026-22.08-17.92-39.974-40-40H152c-22.08,0.026-39.974,17.92-40,40v400c0.026,22.08,17.92,39.974,40,40h176  c22.08-0.026,39.974-17.92,40-40V40z M352,400H128V88h224V400z M128,40c0-13.255,10.745-24,24-24h176c13.255,0,24,10.745,24,24v32  H128V40z M328,464H152c-13.255,0-24-10.745-24-24v-24h224v24C352,453.255,341.255,464,328,464z" data-original="#000000" class="" style="fill:#000000" data-old_color="#FF3860"/><path d="M184,40h112v16H184V40z" data-original="#000000" class="" style="fill:#000000" data-old_color="#FF3860"/><path d="M224,432h32v16h-32V432z" data-original="#000000" class="" style="fill:#000000" data-old_color="#FF3860"/><path d="M144,104h32v16h-32V104z" data-original="#000000" class="" style="fill:#000000;" data-old_color="#FF3860"/><path d="M192,104h32v16h-32V104z" data-original="#000000" class="" style="fill:#000000;" data-old_color="#FF3860"/><path d="M168,232c-4.418,0-8,3.582-8,8v40c0,4.418,3.582,8,8,8s8-3.582,8-8v-40C176,235.582,172.418,232,168,232z" data-original="#000000" class="" style="fill:#000000" data-old_color="#FF3860"/><path d="M312,288c4.418,0,8-3.582,8-8v-40c0-4.418-3.582-8-8-8s-8,3.582-8,8v40C304,284.418,307.582,288,312,288z" data-original="#000000" class="" style="fill:#000000" data-old_color="#FF3860"/><path d="M208,360c0,4.418,3.582,8,8,8s8-3.582,8-8v-32h32v32c0,4.418,3.582,8,8,8s8-3.582,8-8v-32h16V208c0-13.255-10.745-24-24-24  v-16c0-4.418-3.582-8-8-8s-8,3.582-8,8v16h-16v-16c0-4.418-3.582-8-8-8s-8,3.582-8,8v16c-13.255,0-24,10.745-24,24v120h16V360z   M208,208c0-4.418,3.582-8,8-8h48c4.418,0,8,3.582,8,8v24h-64V208z M272,248v64h-64v-64H272z" data-original="#000000" class="" style="fill:#000000" data-old_color="#FF3860"/></g> </svg>