<?xml version="1.0" encoding="UTF-8"?>
<svg xmlns="http://www.w3.org/2000/svg" xmlns:xlink="http://www.w3.org/1999/xlink" version="1.1" id="Layer_1_1_" x="0px" y="0px" viewBox="0 0 64 64" style="enable-background:new 0 0 64 64;" xml:space="preserve" width="512px" height="512px" class=""><g><g>
	<g>
		<path style="fill:#FF3860" d="M41,43H23V21h18V43z" data-original="#F0BC5E" class="active-path" data-old_color="#ff3860"/>
	</g>
	<g>

		<path d="M54,18h1V1H9v17h1c1.654,0,3,1.346,3,3s-1.346,3-3,3H9v21h4v2H9v6h4v2H9v8h46V43h-4v-2h4v-6h-4v-2h4v-9h-1    c-1.654,0-3-1.346-3-3S52.346,18,54,18z M15,3h2v4h-2V3z M19,3h2v4h-2V3z M23,3h2v4h-2V3z M27,3h2v4h-2V3z M49,61h-2v-4h2V61z     M45,61h-2v-4h2V61z M41,61h-2v-4h2V61z M37,61h-2v-4h2V61z M53,25.899V31h-4v6h4v2h-4v6h4v16h-2v-6H33v6H19v-4h8v-2h-2v-8h-6v-8    h-2v10h6v6h-6v6h-6v-4h4v-6h-4v-2h4v-6h-4V25.899c2.279-0.464,4-2.485,4-4.899s-1.721-4.435-4-4.899V3h2v6h18V3h14v4h-8v2h2v8h6v8    h2V15h-6V9h6V3h6v13.101c-2.279,0.464-4,2.485-4,4.899S50.721,25.435,53,25.899z" data-original="#000000" style=""/>
		<rect x="27" y="41" width="2" height="4" data-original="#000000"/>
		<rect x="31" y="41" width="2" height="4" data-original="#000000"/>
		<rect x="35" y="41" width="2" height="4" data-original="#000000"/>
		<rect x="27" y="19" width="2" height="4" data-original="#000000"/>
		<rect x="31" y="19" width="2" height="4" data-original="#000000"/>
		<rect x="35" y="19" width="2" height="4" data-original="#000000"/>
		<rect x="21" y="35" width="4" height="2" data-original="#000000"/>
		<rect x="21" y="31" width="4" height="2" data-original="#000000"/>
		<rect x="21" y="27" width="4" height="2" data-original="#000000"/>
		<rect x="39" y="35" width="4" height="2" data-original="#000000"/>
		<rect x="39" y="31" width="4" height="2" data-original="#000000"/>
		<rect x="39" y="27" width="4" height="2" data-original="#000000"/>
		<rect x="33" y="7" width="2" height="2" data-original="#000000"/>
		<rect x="17" y="35" width="2" height="2" data-original="#000000"/>
		<rect x="45" y="27" width="2" height="2" data-original="#000000"/>
		<rect x="29" y="55" width="2" height="2" data-original="#000000"/>
	</g>
</g></g> </svg>
