<?xml version="1.0" encoding="UTF-8"?>
<svg xmlns="http://www.w3.org/2000/svg" xmlns:xlink="http://www.w3.org/1999/xlink" version="1.1" id="Capa_1" x="0px" y="0px" viewBox="0 0 504.123 504.123" style="enable-background:new 0 0 504.123 504.123;" xml:space="preserve" width="512px" height="512px" class=""><g><path style="fill:#eeeeee;" d="M496.246,103.975V81.92l-20.48-3.938c-1.575-7.089-4.726-14.178-8.665-20.48l11.815-17.329  l-15.754-15.754l-17.329,11.815c-6.302-3.938-12.603-7.089-20.48-8.665l-3.938-20.48H399.36l-3.938,20.48  c-7.089,1.575-14.178,4.726-20.48,8.665l-17.329-11.815l-15.754,15.754l11.815,17.329c-3.938,6.302-7.089,12.603-8.665,20.48  l-18.117,3.938v22.055l20.48,3.938c1.575,7.089,4.726,14.178,8.665,20.48l-11.815,17.329l15.754,15.754l17.329-11.815  c6.302,3.938,12.603,7.089,20.48,8.665l3.938,20.48h22.055l3.938-20.48c7.089-1.575,14.178-4.726,20.48-8.665l17.329,11.815  l15.754-15.754l-11.815-17.329c3.938-6.302,7.089-12.603,8.665-20.48L496.246,103.975z" data-original="#FFFFFF" class=""/><path style="fill:#363636" d="M422.203,185.108h-22.055c-3.938,0-7.089-2.363-7.877-6.302l-3.151-15.754  c-4.726-1.575-8.665-3.151-13.391-5.514l-13.391,9.452c-3.151,2.363-7.089,1.575-10.24-0.788l-15.754-15.754  c-2.363-2.363-3.151-7.089-0.788-10.24l9.452-13.391c-2.363-3.938-3.938-8.665-5.514-13.391l-15.754-3.151  c-3.938-0.788-6.302-3.938-6.302-7.877V80.345c0-3.938,2.363-7.089,6.302-7.877l15.754-3.151c3.151-2.363,4.726-7.089,7.089-11.028  l-9.452-13.391c-2.363-3.151-1.575-7.089,0.788-10.24l15.754-15.754c2.363-2.363,7.089-3.151,10.24-0.788l12.603,9.452  c3.938-2.363,8.665-3.938,13.391-5.514l3.151-15.754C393.846,2.363,396.997,0,400.935,0h22.055c3.938,0,7.089,2.363,7.877,6.302  l3.151,15.754c3.151,1.575,7.877,3.151,11.815,5.514l13.391-9.452c3.151-2.363,7.089-1.575,10.24,0.788l15.754,15.754  c2.363,2.363,3.151,7.089,0.788,10.24l-9.452,13.391c2.363,3.938,3.938,8.665,5.514,13.391l15.754,3.151  c3.938,0.788,6.302,3.938,6.302,7.877v22.055c0,3.938-2.363,7.089-6.302,7.877l-15.754,3.151c-1.575,4.726-3.151,8.665-5.514,13.391  l9.452,13.391c2.363,3.151,1.575,7.089-0.788,10.24l-15.754,15.754c-2.363,2.363-7.089,3.151-10.24,0.788l-13.391-9.452  c-3.938,2.363-8.665,3.938-13.391,5.514l-3.151,15.754C429.292,182.745,426.142,185.108,422.203,185.108z M407.237,169.354h8.665  l2.363-14.178c0.788-3.151,3.151-5.514,6.302-6.302c6.302-1.575,12.603-3.938,18.117-7.089c2.363-1.575,6.302-1.575,8.665,0  l11.815,8.665l6.302-6.302l-8.665-11.815c-1.575-2.363-1.575-6.302,0-8.665c3.151-5.514,6.302-11.815,7.089-18.117  c0.788-3.151,3.151-5.514,6.302-6.302l14.178-2.363v-8.665l-14.178-2.363c-3.151-0.788-5.514-3.151-6.302-6.302  c-1.575-6.302-3.938-12.603-7.089-18.117c-1.575-2.363-1.575-6.302,0-8.665l7.877-11.028l-6.302-6.302l-11.815,7.877  c-2.363,1.575-6.302,1.575-8.665,0c-5.514-3.151-11.815-6.302-18.117-7.089c-2.363-0.788-4.726-3.151-5.514-6.302l-2.363-14.178  h-8.665l-2.363,14.178c-0.788,3.151-3.151,5.514-6.302,6.302c-6.302,1.575-12.603,3.938-18.117,7.089  c-2.363,1.575-6.302,1.575-8.665,0l-11.815-7.877l-6.302,6.302l8.665,11.815c1.575,2.363,1.575,6.302,0,8.665  c-3.151,5.514-6.302,11.815-7.089,18.117c-0.788,3.151-3.151,5.514-6.302,6.302l-14.178,1.575v8.665l14.178,2.363  c3.151,0.788,5.514,3.151,6.302,6.302c1.575,6.302,3.938,12.603,7.089,18.117c1.575,2.363,1.575,6.302,0,8.665l-8.665,11.815  l6.302,6.302l11.815-8.665c2.363-1.575,6.302-1.575,8.665,0c5.514,3.151,11.815,6.302,18.117,7.089  c3.151,0.788,5.514,3.151,6.302,6.302L407.237,169.354z" data-original="#183651" class="" data-old_color="#183651"/><circle style="fill:#FFFFFF;" cx="411.175" cy="92.948" r="18.117" data-original="#FFFFFF" class=""/><path style="fill:#363636" d="M411.175,118.942c-14.178,0-25.994-11.815-25.994-25.994s11.815-25.994,25.994-25.994  c14.178,0,25.994,11.815,25.994,25.994S425.354,118.942,411.175,118.942z M411.175,82.708c-5.514,0-10.24,4.726-10.24,10.24  c0,5.514,4.726,10.24,10.24,10.24s10.24-4.726,10.24-10.24C421.415,87.434,416.689,82.708,411.175,82.708z" data-original="#183651" class="" data-old_color="#183651"/><path style="fill:#eeeeee;" d="M177.231,103.975V81.92l-20.48-3.938c-1.575-7.089-4.726-14.178-8.665-20.48l11.815-17.329  l-15.754-15.754l-17.329,11.815c-6.302-3.938-12.603-7.089-20.48-8.665L102.4,7.089H80.345l-3.938,20.48  c-5.514,3.151-12.603,5.514-18.905,9.452L40.172,25.206L24.418,40.96l11.815,17.329c-3.938,6.302-7.089,12.603-8.665,20.48  l-20.48,3.938v22.055l20.48,3.938c1.575,7.089,4.726,14.178,8.665,20.48l-11.815,17.329l15.754,15.754l17.329-11.815  c6.302,3.938,12.603,7.089,20.48,8.665l3.938,20.48h22.055l3.938-20.48c7.089-1.575,14.178-4.726,20.48-8.665l17.329,11.815  l15.754-15.754l-11.815-17.329c3.938-6.302,7.089-12.603,8.665-20.48L177.231,103.975z" data-original="#FFFFFF" class=""/><path style="fill:#363636" d="M103.975,185.108H81.92c-3.938,0-7.089-2.363-7.877-6.302l-3.151-15.754  c-3.938-1.575-8.665-3.151-12.603-5.514l-13.391,9.452c-3.151,2.363-7.089,1.575-10.24-0.788l-15.754-15.754  c-2.363-2.363-3.151-7.089-0.788-10.24l9.452-12.603c-2.363-3.938-3.938-8.665-5.514-13.391l-15.754-3.151  C2.363,110.277,0,107.126,0,103.188V81.132c0-3.938,2.363-7.089,6.302-7.877l15.754-3.151c1.575-3.151,3.151-7.877,5.514-11.815  l-8.665-13.391c-2.363-3.151-2.363-7.089,0.788-10.24l15.754-15.754c2.363-2.363,7.089-3.151,10.24-0.788l12.603,9.452  c3.938-2.363,8.665-3.938,12.603-5.514l3.151-15.754C74.831,2.363,77.982,0,81.92,0h22.055c3.938,0,7.089,2.363,7.877,6.302  l3.151,15.754c4.726,1.575,8.665,3.151,12.603,5.514l13.391-9.452c3.151-2.363,7.089-1.575,10.24,0.788l15.754,15.754  c2.363,2.363,3.151,7.089,0.788,10.24l-9.452,13.391c1.575,3.938,3.151,8.665,4.726,12.603l15.754,3.151  c3.938,0.788,6.302,3.938,6.302,7.877v22.055c0,3.938-2.363,7.089-6.302,7.877l-15.754,3.151c-1.575,4.726-3.151,8.665-5.514,13.391  l9.452,13.391c2.363,3.151,1.575,7.089-0.788,10.24l-15.754,15.754c-2.363,2.363-7.089,3.151-10.24,0.788l-13.391-9.452  c-3.938,2.363-8.665,3.938-13.391,5.514l-3.151,15.754C111.065,182.745,107.914,185.108,103.975,185.108z M88.222,169.354h8.665  l2.363-14.178c0.788-3.151,3.151-5.514,6.302-6.302c6.302-1.575,12.603-3.938,18.117-7.089c2.363-1.575,6.302-1.575,8.665,0  l11.815,8.665l6.302-6.302l-8.665-11.815c-1.575-2.363-1.575-6.302,0-8.665c3.151-5.514,6.302-11.815,7.089-18.117  c0.788-3.151,3.151-5.514,6.302-6.302l14.178-2.363v-8.665l-14.178-2.363c-3.151-0.788-5.514-3.151-6.302-6.302  c-1.575-6.302-3.938-12.603-7.089-18.117c-1.575-2.363-1.575-6.302,0-8.665l8.665-11.815l-6.302-5.514l-11.815,7.877  c-2.363,1.575-6.302,1.575-8.665,0c-5.514-3.151-11.815-6.302-18.117-7.089c-3.151-0.788-5.514-3.151-6.302-6.302l-2.363-14.178  h-8.665l-2.363,14.178c-0.788,3.151-3.151,5.514-6.302,6.302c-6.302,1.575-11.815,3.938-17.329,7.877  c-3.151,1.575-6.302,1.575-8.665-0.788l-11.815-7.877l-6.302,6.302l7.877,11.815c1.575,2.363,1.575,6.302,0,8.665  c-3.151,5.514-6.302,11.815-7.089,18.117c-0.788,2.363-3.151,4.726-6.302,5.514l-14.178,2.363v8.665l14.178,2.363  c3.151,0.788,5.514,3.151,6.302,6.302c1.575,6.302,3.938,12.603,7.089,18.117c1.575,2.363,1.575,6.302,0,8.665l-7.877,11.815  l6.302,6.302l11.815-8.665c2.363-1.575,6.302-1.575,8.665,0c5.514,3.151,11.815,6.302,18.117,7.089  c3.151,0.788,5.514,3.151,6.302,6.302L88.222,169.354z" data-original="#183651" class="" data-old_color="#183651"/><circle style="fill:#FFFFFF;" cx="92.948" cy="92.948" r="18.117" data-original="#FFFFFF" class=""/><path style="fill:#363636" d="M92.948,118.942c-14.178,0-25.994-11.815-25.994-25.994s11.815-25.994,25.994-25.994  s25.994,11.815,25.994,25.994S107.126,118.942,92.948,118.942z M92.948,82.708c-5.514,0-10.24,4.726-10.24,10.24  c0,5.514,4.726,10.24,10.24,10.24c5.514,0,10.24-4.726,10.24-10.24C103.188,87.434,98.462,82.708,92.948,82.708z" data-original="#183651" class="" data-old_color="#183651"/><path style="fill:#eeeeee;" d="M496.246,422.203v-22.055l-20.48-3.938c-1.575-7.089-4.726-14.178-8.665-20.48l11.815-17.329  l-15.754-15.754l-17.329,11.815c-6.302-3.938-12.603-7.089-20.48-8.665l-3.151-18.905h-22.055l-3.938,20.48  c-7.089,1.575-14.178,4.726-20.48,8.665L358.4,344.222l-15.754,15.754l11.815,17.329c-3.938,6.302-7.089,12.603-8.665,20.48  l-18.905,2.363v22.055l20.48,3.938c1.575,7.089,4.726,14.178,8.665,20.48l-11.815,17.329l15.754,15.754l17.329-11.815  c6.302,3.938,12.603,7.089,20.48,8.665l3.938,20.48h22.055l3.938-20.48c7.089-1.575,14.178-4.726,20.48-8.665l17.329,11.815  l15.754-15.754l-11.815-17.329c3.938-6.302,7.089-12.603,8.665-20.48L496.246,422.203z" data-original="#FFFFFF" class=""/><path style="fill:#363636" d="M422.203,504.123h-22.055c-3.938,0-7.089-2.363-7.877-6.302l-3.151-15.754  c-4.726-1.575-8.665-3.151-13.391-5.514l-13.391,9.452c-3.151,2.363-7.089,1.575-10.24-0.788l-15.754-15.754  c-2.363-2.363-3.151-7.089-0.788-10.24l9.452-13.391c-2.363-3.938-3.938-8.665-5.514-13.391l-15.754-3.151  c-3.938-0.788-6.302-3.938-6.302-7.877V399.36c0-3.938,2.363-7.089,6.302-7.877l15.754-3.151c1.575-4.726,3.151-8.665,5.514-13.391  l-9.452-13.391c-2.363-3.151-1.575-7.089,0.788-10.24l15.754-15.754c2.363-2.363,7.089-3.151,10.24-0.788l13.391,9.452  c3.938-2.363,8.665-3.938,13.391-5.514l3.151-15.754c0.788-3.938,3.938-6.302,7.877-6.302h22.055c3.938,0,7.089,2.363,7.877,6.302  l3.151,15.754c4.726,1.575,8.665,3.151,13.391,5.514l13.391-9.452c3.151-2.363,7.089-1.575,10.24,0.788l15.754,15.754  c2.363,2.363,3.151,7.089,0.788,10.24l-10.24,14.966c2.363,3.938,3.938,8.665,5.514,13.391l15.754,3.151  c3.938,0.788,6.302,3.938,6.302,7.877v22.055c0,3.938-2.363,7.089-6.302,7.877l-15.754,3.151c-1.575,4.726-3.151,8.665-5.514,13.391  l9.452,13.391c2.363,3.151,1.575,7.089-0.788,10.24l-15.754,15.754c-2.363,2.363-7.089,3.151-10.24,0.788l-13.391-11.028  c-3.938,2.363-8.665,3.938-13.391,5.514l-3.151,15.754C429.292,501.76,426.142,504.123,422.203,504.123z M407.237,488.369h8.665  l2.363-14.178c0.788-3.151,3.151-5.514,6.302-6.302c6.302-1.575,12.603-3.938,18.117-7.089c2.363-1.575,6.302-1.575,8.665,0  l11.815,8.665l6.302-6.302L460.8,450.56c-1.575-2.363-1.575-6.302,0-8.665c3.151-5.514,6.302-11.815,7.089-18.117  c0.788-3.151,3.151-5.514,6.302-6.302l14.178-2.363v-8.665l-14.178-2.363c-3.151-0.788-5.514-3.151-6.302-6.302  c-1.575-6.302-3.938-12.603-7.089-18.117c-1.575-2.363-1.575-6.302,0-8.665l8.665-11.815l-6.302-6.302l-11.815,8.665  c-2.363,1.575-6.302,1.575-8.665,0c-5.514-3.151-11.815-6.302-18.117-7.089c-3.151-0.788-5.514-3.151-6.302-6.302l-2.363-13.391  h-8.665l-2.363,14.178c-0.788,3.151-3.151,5.514-6.302,6.302c-6.302,1.575-12.603,3.938-18.117,7.089  c-2.363,1.575-6.302,1.575-8.665,0l-11.815-8.665l-6.302,6.302l8.665,11.815c1.575,2.363,1.575,6.302,0,8.665  c-3.151,5.514-6.302,11.815-7.089,18.117c-0.788,3.151-3.151,5.514-6.302,6.302l-14.178,2.363v8.665l14.178,2.363  c3.151,0.788,5.514,3.151,6.302,6.302c1.575,6.302,3.938,12.603,7.089,18.117c1.575,2.363,1.575,6.302,0,8.665l-8.665,11.815  l6.302,6.302l11.815-8.665c2.363-1.575,6.302-1.575,8.665,0c5.514,3.151,11.815,6.302,18.117,7.089  c3.151,0.788,5.514,3.151,6.302,6.302L407.237,488.369z" data-original="#183651" class="" data-old_color="#183651"/><circle style="fill:#FFFFFF;" cx="411.175" cy="411.175" r="18.117" data-original="#FFFFFF" class=""/><path style="fill:#363636" d="M411.175,437.169c-14.178,0-25.994-11.815-25.994-25.994c0-14.178,11.815-25.994,25.994-25.994  c14.178,0,25.994,11.815,25.994,25.994C437.169,425.354,425.354,437.169,411.175,437.169z M411.175,400.935  c-5.514,0-10.24,4.726-10.24,10.24s4.726,10.24,10.24,10.24s10.24-4.726,10.24-10.24S416.689,400.935,411.175,400.935z" data-original="#183651" class="" data-old_color="#183651"/><path style="fill:#eeeeee;" d="M177.231,422.203v-22.055l-20.48-3.938c-1.575-7.089-4.726-14.178-8.665-20.48l11.815-17.329  l-15.754-15.754l-17.329,11.815c-6.302-3.938-12.603-7.089-20.48-8.665l-2.363-18.905H81.92l-3.938,20.48  c-7.089,1.575-14.178,4.726-20.48,8.665l-17.329-11.815l-15.754,15.754l11.815,17.329c-3.938,6.302-7.089,12.603-8.665,20.48  l-20.48,3.938v22.055l20.48,3.938c1.575,7.089,4.726,14.178,8.665,20.48l-11.815,17.329l15.754,15.754l17.329-11.815  c6.302,3.938,12.603,7.089,20.48,8.665l3.938,20.48h22.055l3.938-20.48c7.089-1.575,14.178-4.726,20.48-8.665l17.329,11.815  l15.754-15.754l-11.815-17.329c3.938-6.302,7.089-12.603,8.665-20.48L177.231,422.203z" data-original="#FFFFFF" class=""/><path style="fill:#363636" d="M103.975,504.123H81.92c-3.938,0-7.089-2.363-7.877-6.302l-3.151-15.754  c-3.938-1.575-8.665-3.151-12.603-5.514l-13.391,9.452c-3.151,2.363-7.089,1.575-10.24-0.788l-15.754-15.754  c-2.363-2.363-3.151-7.089-0.788-10.24l9.452-13.391c-2.363-3.938-3.938-8.665-5.514-13.391l-15.754-3.151  C2.363,428.505,0,425.354,0,421.415V399.36c0-3.938,2.363-7.089,6.302-7.877l15.754-3.151c1.575-4.726,3.151-8.665,5.514-13.391  l-9.452-13.391c-2.363-3.151-1.575-7.089,0.788-10.24l15.754-15.754c2.363-2.363,7.089-3.151,10.24-0.788l13.391,9.452  c3.938,0,8.665-1.575,12.603-3.151l3.151-15.754c0.788-3.938,3.938-6.302,7.877-6.302h22.055c3.938,0,7.089,2.363,7.877,6.302  l3.151,15.754c4.726,1.575,8.665,3.151,12.603,5.514l13.391-9.452c3.151-2.363,7.089-1.575,10.24,0.788l15.754,15.754  c2.363,2.363,3.151,7.089,0.788,10.24l-9.452,13.391c2.363,3.938,3.938,8.665,5.514,13.391l15.754,3.151  c3.938,0.788,6.302,3.938,6.302,7.877v22.055c0,3.938-2.363,7.089-6.302,7.877l-15.754,3.151c-1.575,4.726-3.151,8.665-5.514,13.391  l9.452,13.391c2.363,3.151,1.575,7.089-0.788,10.24l-15.754,15.754c-2.363,2.363-7.089,3.151-10.24,0.788l-13.391-11.815  c-3.938,2.363-8.665,3.938-13.391,5.514l-3.151,15.754C111.065,501.76,107.914,504.123,103.975,504.123z M88.222,488.369h8.665  l2.363-14.178c0.788-3.151,3.151-5.514,6.302-6.302c6.302-1.575,12.603-3.938,18.117-7.089c2.363-1.575,6.302-1.575,8.665,0  l11.815,8.665l6.302-6.302l-8.665-11.815c-1.575-2.363-1.575-6.302,0-8.665c3.151-5.514,6.302-11.815,7.089-18.117  c0.788-3.151,3.151-5.514,6.302-6.302l14.178-2.363v-8.665l-14.178-2.363c-3.151-0.788-5.514-3.151-6.302-6.302  c-1.575-6.302-3.938-12.603-7.089-18.117c-1.575-2.363-1.575-6.302,0-8.665l8.665-11.815l-6.302-6.302l-11.815,8.665  c-2.363,1.575-6.302,1.575-8.665,0c-5.514-3.151-11.815-6.302-18.117-7.089c-3.151-0.788-5.514-3.151-6.302-6.302l-2.363-14.179  h-8.665l-2.363,14.178c-0.788,3.151-3.151,5.514-6.302,6.302c-6.302,1.575-12.603,3.938-18.117,7.089  c-2.363,1.575-6.302,1.575-8.665,0l-11.815-8.665l-5.514,6.302l7.877,11.815c1.575,2.363,1.575,6.302,0,8.665  c-3.151,5.514-6.302,11.815-7.089,18.117c-0.788,3.151-3.151,5.514-6.302,6.302l-14.178,2.363v8.665l14.178,2.363  c3.151,0.788,5.514,3.151,6.302,6.302c1.575,6.302,3.938,12.603,7.089,18.117c1.575,2.363,1.575,6.302,0,8.665l-7.877,11.028  l6.302,6.302l11.815-7.877c2.363-1.575,6.302-1.575,8.665,0c5.514,3.151,11.815,6.302,18.117,7.089  c3.151,0.788,5.514,3.151,6.302,6.302L88.222,488.369z" data-original="#183651" class="" data-old_color="#183651"/><circle style="fill:#FFFFFF;" cx="92.948" cy="411.175" r="18.117" data-original="#FFFFFF" class=""/><path style="fill:#363636" d="M92.948,437.169c-14.178,0-25.994-11.815-25.994-25.994c0-14.178,11.815-25.994,25.994-25.994  s25.994,11.815,25.994,25.994C118.942,425.354,107.126,437.169,92.948,437.169z M92.948,400.935c-5.514,0-10.24,4.726-10.24,10.24  s4.726,10.24,10.24,10.24c5.514,0,10.24-4.726,10.24-10.24S98.462,400.935,92.948,400.935z" data-original="#183651" class="" data-old_color="#183651"/><polygon style="fill:#FF3860" points="252.062,364.702 155.963,318.228 155.963,193.772 252.062,247.335 " data-original="#2AA0DA" class="" data-old_color="#ff3860"/><path style="fill:#fff;" d="M252.062,372.578c-0.788,0-2.363,0-3.151-0.788l-96.098-46.474c-2.363-1.575-4.726-3.938-4.726-7.089  V193.772c0-3.151,1.575-5.514,3.938-7.089c2.363-1.575,5.514-1.575,7.877,0L256,241.034c2.363,1.575,3.938,3.938,3.938,7.089  v117.366c0,2.363-1.575,5.514-3.938,6.302C255.212,372.578,253.637,372.578,252.062,372.578z M163.84,313.502l80.345,38.597V252.062  l-80.345-44.898V313.502z" data-original="#183651" class="" data-old_color="#183651"/><polygon style="fill:#FF3860" points="252.062,364.702 348.16,318.228 348.16,193.772 252.062,247.335 " data-original="#2AA0DA" class="" data-old_color="#ff3860"/><path style="fill:#fff;" d="M252.062,372.578c-1.575,0-3.151-0.788-3.938-1.575c-2.363-1.575-3.938-3.938-3.938-6.302V247.335  c0-3.151,1.575-5.514,3.938-7.089l96.098-54.351c2.363-1.575,5.514-1.575,7.877,0s3.938,3.938,3.938,7.089v125.243  c0,3.151-1.575,5.514-4.726,7.089l-96.098,46.474C254.425,372.578,252.849,372.578,252.062,372.578z M259.938,252.062v100.037  l80.345-38.597V207.163L259.938,252.062z" data-original="#183651" class="" data-old_color="#183651"/><polygon style="fill:#FF3860" points="252.062,139.422 155.963,193.772 252.062,247.335 348.16,193.772 " data-original="#2AA0DA" class="" data-old_color="#ff3860"/><path style="fill:#fff;" d="M252.062,255.212c-1.575,0-2.363,0-3.938-0.788l-96.098-54.351c-2.363-1.575-3.938-3.938-3.938-7.089  c0-3.151,1.575-5.514,3.938-7.089l96.098-53.563c2.363-1.575,5.514-1.575,7.877,0l96.098,54.351  c2.363,1.575,3.938,3.938,3.938,7.089c0,3.151-1.575,5.514-3.938,7.089L256,254.425  C254.425,255.212,253.637,255.212,252.062,255.212z M171.717,193.772l80.345,44.898l80.345-44.898l-80.345-44.898L171.717,193.772z" data-original="#183651" class="" data-old_color="#183651"/><g>
	<rect x="396.997" y="244.185" style="fill:#363636" width="15.754" height="15.754" data-original="#183651" class="" data-old_color="#183651"/>
	<rect x="442.683" y="244.185" style="fill:#363636" width="15.754" height="15.754" data-original="#183651" class="" data-old_color="#183651"/>
	<rect x="488.369" y="244.185" style="fill:#363636" width="15.754" height="15.754" data-original="#183651" class="" data-old_color="#183651"/>
	<rect x="0" y="244.185" style="fill:#363636" width="15.754" height="15.754" data-original="#183651" class="" data-old_color="#183651"/>
	<rect x="45.686" y="244.185" style="fill:#363636" width="15.754" height="15.754" data-original="#183651" class="" data-old_color="#183651"/>
	<rect x="91.372" y="244.185" style="fill:#363636" width="15.754" height="15.754" data-original="#183651" class="" data-old_color="#183651"/>
	<rect x="244.185" y="396.997" style="fill:#363636" width="15.754" height="15.754" data-original="#183651" class="" data-old_color="#183651"/>
	<rect x="244.185" y="442.683" style="fill:#363636" width="15.754" height="15.754" data-original="#183651" class="" data-old_color="#183651"/>
	<rect x="244.185" y="488.369" style="fill:#363636" width="15.754" height="15.754" data-original="#183651" class="" data-old_color="#183651"/>
	<rect x="244.185" y="0" style="fill:#363636" width="15.754" height="15.754" data-original="#183651" class="" data-old_color="#183651"/>
	<rect x="244.185" y="45.686" style="fill:#363636" width="15.754" height="15.754" data-original="#183651" class="" data-old_color="#183651"/>
	<rect x="244.185" y="91.372" style="fill:#363636" width="15.754" height="15.754" data-original="#183651" class="" data-old_color="#183651"/>
</g></g> </svg>